<?xml version="1.0" standalone="no"?>
<!DOCTYPE svg PUBLIC "-//W3C//DTD SVG 20010904//EN"
 "http://www.w3.org/TR/2001/REC-SVG-20010904/DTD/svg10.dtd">
<svg version="1.0" xmlns="http://www.w3.org/2000/svg"
 width="512.000000pt" height="512.000000pt" viewBox="0 0 512.000000 512.000000"
 preserveAspectRatio="xMidYMid meet">

<g transform="translate(0.000000,512.000000) scale(0.100000,-0.100000)"
fill="#000000" stroke="none">
<path d="M1870 5098 c-68 -35 -83 -66 -120 -252 l-33 -166 -41 -11 c-199 -51
-494 -153 -601 -206 -126 -63 -281 -206 -347 -319 -54 -94 -649 -1441 -675
-1529 -52 -173 -53 -204 -53 -1160 0 -846 1 -892 19 -931 10 -23 34 -52 52
-65 l34 -24 355 -3 c352 -2 355 -2 394 20 25 14 48 40 63 67 l23 44 0 692 c0
750 2 782 56 944 29 88 177 398 182 383 2 -6 -13 -513 -33 -1128 -42 -1287
-51 -1141 75 -1205 320 -164 665 -233 1220 -246 646 -14 1090 60 1459 245 127
63 118 -82 76 1206 -20 615 -35 1122 -33 1128 5 15 153 -295 182 -383 54 -161
56 -194 56 -944 l0 -692 23 -44 c15 -27 38 -53 63 -67 39 -22 42 -22 394 -20
l355 3 34 24 c18 13 42 42 52 65 18 39 19 85 19 930 0 964 -2 1006 -56 1177
-30 95 -627 1435 -675 1515 -75 124 -209 244 -354 317 -120 59 -471 180 -587
202 -21 4 -41 12 -46 19 -5 6 -21 74 -36 151 -15 77 -31 154 -37 171 -11 36
-63 89 -102 103 -19 7 -242 11 -671 11 l-642 0 -44 -22z m260 -287 c0 -135 1
-140 26 -170 33 -39 80 -42 121 -7 28 24 28 25 31 170 l4 146 79 0 79 0 0
-177 c0 -158 2 -182 19 -210 35 -56 115 -53 146 6 12 24 15 67 15 206 l0 175
79 0 79 0 4 -146 c3 -145 3 -146 31 -170 41 -35 88 -32 121 7 25 30 26 35 26
170 l0 139 90 0 c85 0 90 -1 95 -22 3 -13 20 -99 39 -192 24 -120 39 -174 53
-187 12 -12 71 -33 152 -54 229 -59 489 -155 604 -223 72 -42 163 -130 209
-202 54 -85 653 -1442 677 -1535 37 -139 41 -233 41 -922 l0 -673 -300 0 -300
0 0 513 c0 572 -4 618 -66 805 -20 62 -100 234 -205 443 -157 313 -174 342
-205 355 -40 17 -72 7 -103 -32 -12 -15 -23 -25 -24 -23 -21 29 -95 118 -110
132 -19 17 -61 22 -91 11 -8 -3 -79 -84 -156 -180 -78 -96 -145 -174 -148
-174 -4 0 -70 79 -146 175 -144 179 -172 204 -219 186 -28 -11 -63 -49 -201
-224 -60 -75 -112 -137 -116 -137 -4 0 -56 62 -116 137 -138 175 -173 213
-201 224 -47 18 -75 -7 -219 -186 -76 -96 -142 -175 -145 -175 -4 0 -70 79
-149 176 -78 96 -152 179 -164 184 -45 17 -75 0 -138 -78 -54 -66 -62 -72 -69
-54 -18 47 -84 66 -127 36 -32 -22 -355 -671 -397 -798 -62 -184 -65 -222 -65
-797 l0 -519 -300 0 -300 0 0 678 c0 712 3 783 45 926 37 127 625 1456 681
1539 56 81 125 145 213 197 117 68 398 166 687 240 65 16 73 33 110 217 19 93
36 178 39 191 5 21 10 22 95 22 l90 0 0 -139z m-445 -2574 c86 -105 150 -175
166 -181 53 -18 72 -3 220 183 79 99 147 177 151 175 4 -3 70 -83 148 -179
143 -178 162 -194 214 -181 16 4 75 68 172 187 80 99 150 177 154 172 4 -4 69
-86 145 -181 142 -179 161 -194 214 -176 16 6 81 77 168 184 78 96 145 174
149 174 4 -1 48 -54 99 -118 l92 -115 7 -158 c3 -87 8 -241 11 -343 l6 -185
-23 26 c-13 14 -51 59 -85 101 -66 81 -96 97 -141 76 -15 -7 -89 -90 -164
-183 -75 -94 -141 -170 -146 -170 -6 0 -69 74 -141 165 -73 91 -141 171 -152
179 -27 19 -77 16 -100 -5 -11 -10 -79 -91 -151 -181 -73 -90 -135 -163 -138
-163 -3 0 -65 73 -137 163 -72 89 -140 170 -151 180 -22 20 -69 25 -95 11 -9
-5 -78 -86 -153 -179 -75 -94 -141 -170 -146 -170 -6 0 -74 79 -152 175 -94
117 -149 176 -166 180 -47 12 -78 -9 -161 -113 l-82 -102 7 205 c3 113 9 269
12 348 l7 143 95 119 c53 66 98 117 101 114 3 -3 69 -82 146 -177z m-15 -1432
c141 -176 170 -205 206 -205 40 0 52 10 151 133 53 67 118 148 144 179 l48 58
146 -180 c96 -119 154 -182 170 -186 53 -13 72 3 220 186 l146 180 48 -58 c26
-31 91 -112 144 -179 99 -123 111 -133 151 -133 36 0 65 29 207 206 106 133
134 163 144 152 7 -7 62 -76 122 -153 l110 -140 5 -129 5 -128 -74 -34 c-270
-123 -524 -175 -956 -196 -291 -14 -657 -1 -880 32 -226 34 -444 97 -596 175
l-53 26 7 127 8 127 120 153 c66 83 121 152 123 152 1 0 61 -74 134 -165z"/>
<path d="M1990 4495 c-29 -31 -32 -85 -7 -113 24 -27 109 -58 230 -84 90 -20
131 -22 347 -22 211 0 259 3 345 21 121 26 206 56 231 84 42 47 4 139 -57 139
-16 0 -63 -11 -104 -25 -124 -40 -235 -55 -415 -55 -180 0 -291 15 -415 55
-96 32 -125 32 -155 0z"/>
</g>
</svg>
