<?xml version="1.0" standalone="no"?>
<!DOCTYPE svg PUBLIC "-//W3C//DTD SVG 20010904//EN"
 "http://www.w3.org/TR/2001/REC-SVG-20010904/DTD/svg10.dtd">
<svg version="1.0" xmlns="http://www.w3.org/2000/svg"
 width="512.000000pt" height="512.000000pt" viewBox="0 0 512.000000 512.000000"
 preserveAspectRatio="xMidYMid meet">

<g transform="translate(0.000000,512.000000) scale(0.100000,-0.100000)"
fill="#000000" stroke="none">
<path d="M2102 4931 c-15 -15 -90 -107 -167 -204 l-139 -176 -471 -117 c-258
-64 -479 -122 -491 -129 -15 -10 -81 -184 -268 -716 l-248 -702 163 -941 c146
-838 166 -943 186 -964 22 -21 27 -22 238 -22 l215 0 0 -214 c0 -189 2 -216
18 -236 15 -18 126 -47 721 -187 l703 -165 697 163 c571 134 700 168 719 186
21 22 22 27 22 238 l0 215 215 0 c211 0 216 1 238 23 20 20 40 125 186 963
l163 941 -248 702 c-187 532 -253 706 -268 716 -12 7 -233 65 -491 129 l-471
117 -139 176 c-77 97 -152 189 -167 204 l-26 29 -432 0 -432 0 -26 -29z m578
-263 c-61 -73 -115 -133 -120 -133 -5 0 -59 60 -120 133 l-111 132 231 0 231
0 -111 -132z m-384 -78 c71 -85 134 -162 141 -171 10 -13 -9 -37 -126 -153
l-139 -139 -113 169 c-62 93 -112 173 -112 179 0 14 206 275 214 272 4 -1 64
-72 135 -157z m773 28 c57 -73 104 -137 104 -143 0 -6 -50 -86 -112 -179
l-113 -169 -139 139 c-83 83 -135 142 -131 149 14 23 277 335 282 334 3 0 52
-59 109 -131z m-1115 -454 c83 -124 158 -230 167 -235 48 -25 68 -13 216 133
l143 142 0 -1933 c0 -1571 -2 -1932 -13 -1928 -7 3 -277 67 -600 143 l-587
138 0 1368 0 1368 -80 0 -80 0 0 -920 0 -920 -200 0 c-199 0 -200 0 -205 22
-3 13 -57 317 -119 677 l-114 655 224 635 c123 350 228 643 232 651 6 9 163
53 433 121 233 59 426 107 429 108 3 0 72 -101 154 -225z m1796 116 c223 -55
411 -103 418 -108 8 -4 116 -298 242 -653 l228 -645 -114 -655 c-62 -360 -116
-664 -119 -677 -5 -22 -6 -22 -205 -22 l-200 0 0 920 0 920 -80 0 -80 0 0
-1369 0 -1369 -47 -11 c-71 -15 -1115 -261 -1135 -267 -17 -5 -18 91 -18 1927
l0 1933 143 -142 c148 -146 168 -158 216 -133 9 5 84 111 167 235 103 156 154
224 164 221 8 -2 197 -49 420 -105z m-2630 -3040 l0 -120 -167 2 -167 3 -18
100 c-9 55 -17 108 -17 118 -1 16 14 17 184 17 l185 0 0 -120z m3249 103 c0
-10 -8 -63 -17 -118 l-18 -100 -167 -3 -167 -2 0 120 0 120 185 0 c170 0 185
-1 184 -17z"/>
<path d="M2825 3415 l-25 -24 0 -351 0 -351 25 -24 24 -25 351 0 351 0 24 25
25 24 0 351 0 351 -25 24 -24 25 -351 0 -351 0 -24 -25z m615 -375 l0 -240
-240 0 -240 0 0 240 0 240 240 0 240 0 0 -240z"/>
</g>
</svg>
