<?xml version="1.0" standalone="no"?>
<!DOCTYPE svg PUBLIC "-//W3C//DTD SVG 20010904//EN"
 "http://www.w3.org/TR/2001/REC-SVG-20010904/DTD/svg10.dtd">
<svg version="1.0" xmlns="http://www.w3.org/2000/svg"
 width="512.000000pt" height="512.000000pt" viewBox="0 0 512.000000 512.000000"
 preserveAspectRatio="xMidYMid meet">

<g transform="translate(0.000000,512.000000) scale(0.100000,-0.100000)"
fill="#000000" stroke="none">
<path d="M1840 4479 c-85 -34 -312 -118 -505 -189 l-350 -128 -22 -51 c-80
-182 -205 -565 -268 -822 -81 -328 -91 -453 -100 -1174 -3 -269 -12 -758 -20
-1085 -22 -914 -22 -911 1 -951 11 -20 38 -43 64 -57 l44 -22 1876 0 1876 0
44 22 c59 30 82 72 84 151 4 234 -17 2472 -25 2595 -5 84 -19 205 -30 270 -50
288 -167 682 -314 1057 l-28 70 -301 109 c-166 60 -386 141 -491 182 -104 40
-199 74 -209 76 -24 4 -10 70 -176 -822 -71 -377 -129 -683 -130 -680 -1 3
-32 252 -70 555 l-68 550 44 87 c24 48 44 94 44 101 0 15 -215 170 -235 170
-20 0 -235 -155 -235 -170 0 -7 20 -54 45 -103 l45 -89 72 -4 73 -3 -71 -2
c-65 -2 -72 -4 -77 -24 -3 -13 -34 -258 -68 -545 -35 -288 -66 -523 -69 -523
-3 0 -52 253 -109 563 -135 738 -172 931 -180 939 -3 4 -76 -20 -161 -53z
m-491 -1930 c55 -331 64 -437 58 -719 -6 -297 -21 -410 -116 -890 -76 -387
-88 -453 -116 -685 l-23 -190 4 220 c26 1353 68 2146 130 2419 21 89 23 84 63
-155z m2525 101 c57 -314 94 -1045 120 -2355 l4 -210 -19 160 c-25 213 -40
302 -114 680 -109 549 -131 743 -122 1060 6 214 40 484 93 749 9 42 19 18 38
-84z"/>
</g>
</svg>
